<svg id="Layer_1" data-name="Layer 1" xmlns="http://www.w3.org/2000/svg" viewBox="0 0 404.5 564.8"><defs><style>.cls-1{fill:none;stroke:#1b7cb2;stroke-miterlimit:10;stroke-width:3px;}</style></defs><path class="cls-1" d="M123.3,363.7c-5.5-2.6-7.4-7-7.1-13s0-10.9.1-16.3c.1-7,3.9-10.7,10.9-10.7H159c-1-11-2-21.7-3-32.7H111.6c-15.8-.1-26.4-10.7-26.4-26.5V48.6c0-16,10.6-26.6,26.6-26.6H295c16,0,26.5,10.6,26.5,26.6q.2,108,0,215.9c0,15.8-10.6,26.4-26.3,26.5H250.8c-1,10.8-2,21.5-3,32.7h31.8c7,0,10.8,3.8,10.8,10.7s-.2,10.9.1,16.3-1.5,10.4-7,13ZM311.5,156.8V48.7c0-10.7-6-16.7-16.7-16.7H112.2c-11,0-17,6-17,16.9V264.1c0,10.9,6,16.9,17,16.9H294.4c11.2,0,17.1-5.9,17.1-17.1ZM280.3,333.7H217.6c-3.3-.1-5.5-2-5.5-4.9s2-5,5.4-5.1h20.2c1-11,2-21.7,3-32.5H166.1l3,32.5h24.1c3.3,0,5.5,2.2,5.5,5s-2.2,4.9-5.6,5H126.5v19.9H280.3ZM153,62c4.3,0,6.5-1.7,6.6-4.9s-2.3-5.1-6.4-5.1H125.1c-7.2,0-9.8,2.7-9.8,9.9V201c0,7.2,2.6,9.9,9.8,9.9H281.6c7.3,0,9.9-2.6,9.9-9.8V61.9c0-7.2-2.6-9.9-9.8-9.9H180.2a15.1,15.1,0,0,0-3,.1,4.8,4.8,0,0,0-4.1,5c0,2.7,1.6,4.3,4.2,4.8a12,12,0,0,0,3.3.1H281.2V200.7H125.4V62C134.8,62,143.9,62.1,153,62ZM122.6,230.9a12.2,12.2,0,0,0-3.3.2,4.6,4.6,0,0,0-4,4.6c-.1,2.7,1.4,4.4,4,5.1a17.9,17.9,0,0,0,3.3.1H284.1a15.1,15.1,0,0,0,3-.1c2.8-.5,4.4-2.2,4.3-5s-1.6-4.3-4.3-4.8a17.9,17.9,0,0,0-3.3-.1H122.6Zm63.6-99.6V113.6c-.1-4.2,1.5-7.6,5.3-9.6s7.5-1.2,10.9,1.3l24.1,17.8c6.4,4.8,6.4,11.9,0,16.7l-24.1,17.8c-3.4,2.6-7,3.4-10.9,1.3s-5.4-5.4-5.3-9.6Zm34.8.2-24.6-18.2v36.3ZM152.7,250.9a12,12,0,0,0-3.3.2,4.5,4.5,0,0,0-4,4.7,4.7,4.7,0,0,0,3.9,5,12.8,12.8,0,0,0,3.4.1q50.7.2,101.4,0c1,0,2,.1,3,0,2.7-.6,4.4-2.3,4.3-5.1s-1.7-4.3-4.3-4.8a15.1,15.1,0,0,0-3-.1H152.7ZM28.2,399.6h13a28.3,28.3,0,0,1,6.7.6,12.2,12.2,0,0,1,5.3,3.3,14.7,14.7,0,0,1,3.4,5.7,27.8,27.8,0,0,1,1.1,8.3,23.9,23.9,0,0,1-1,7.5,15.9,15.9,0,0,1-3.8,6.2,12.1,12.1,0,0,1-5,2.8,21.5,21.5,0,0,1-6.3.8H28.2Zm7.1,5.9v23.4h5.3a19.3,19.3,0,0,0,4.3-.4,7.8,7.8,0,0,0,2.9-1.4,7.8,7.8,0,0,0,1.9-3.4,27.3,27.3,0,0,0,.7-6.5,24.9,24.9,0,0,0-.7-6.3,8.2,8.2,0,0,0-2.1-3.4,6.5,6.5,0,0,0-3.2-1.6,25.8,25.8,0,0,0-5.9-.4Zm28.4.3v-6.2h6.8v6.2Zm0,29V409.3h6.8v25.5Zm13.1,1.7,7.7.9a2.6,2.6,0,0,0,.9,1.9,5.5,5.5,0,0,0,3,.7,7.8,7.8,0,0,0,3.9-.8,3.4,3.4,0,0,0,1.4-1.7,10.9,10.9,0,0,0,.3-3.1v-3.7a9.2,9.2,0,0,1-7.6,4.1,9.5,9.5,0,0,1-8.2-4.4,15.2,15.2,0,0,1-2.3-8.5c0-4.3,1-7.6,3.1-9.8a9.7,9.7,0,0,1,7.6-3.4,9.2,9.2,0,0,1,7.8,4.2v-3.6h6.3v22.9a22.7,22.7,0,0,1-.7,6.7,8,8,0,0,1-2.1,3.5,8.9,8.9,0,0,1-3.6,2,18.5,18.5,0,0,1-5.7.7c-4.3,0-7.3-.7-9.2-2.2a6.9,6.9,0,0,1-2.7-5.6A2.5,2.5,0,0,1,76.8,436.5Zm6-15c0,2.7.5,4.7,1.6,5.9a4.6,4.6,0,0,0,3.8,1.9,5.2,5.2,0,0,0,4.2-1.9c1.2-1.3,1.7-3.2,1.7-5.7s-.5-4.6-1.6-5.9a5.2,5.2,0,0,0-4.1-1.9,4.7,4.7,0,0,0-4,1.9C83.3,417,82.8,418.9,82.8,421.5Zm24.6-15.7v-6.2h6.8v6.2Zm0,29V409.3h6.8v25.5Zm25.4-25.5v5.4h-4.6v10.2a27.6,27.6,0,0,0,.1,3.7,1.6,1.6,0,0,0,.6.8,1.6,1.6,0,0,0,1.2.4,10.6,10.6,0,0,0,2.7-.7l.5,5.3a14.3,14.3,0,0,1-5.3,1,7.2,7.2,0,0,1-3.3-.7,4.4,4.4,0,0,1-2.1-1.5,6.6,6.6,0,0,1-1-2.7,39.8,39.8,0,0,1-.2-4.7V414.7h-3.1v-5.4h3.1v-5.1l6.8-3.9v9Zm9.7,7.8-6.1-1.1a9.9,9.9,0,0,1,3.5-5.5q2.5-1.8,7.5-1.8a16.5,16.5,0,0,1,6.8,1.1,6.9,6.9,0,0,1,3.1,2.7q.9,1.7.9,6v7.9a30.7,30.7,0,0,0,.3,5,13.9,13.9,0,0,0,1.2,3.4H153l-.7-2c-.1-.4-.2-.7-.2-.8a12.1,12.1,0,0,1-3.7,2.5,9.9,9.9,0,0,1-4.2.9,8.7,8.7,0,0,1-6.2-2.2,7.1,7.1,0,0,1-2.3-5.4,7,7,0,0,1,1-3.8,6.6,6.6,0,0,1,2.9-2.6,22,22,0,0,1,5.4-1.6,30.1,30.1,0,0,0,6.5-1.7v-.6a3.6,3.6,0,0,0-.9-2.8c-.7-.6-1.9-.8-3.6-.8a5,5,0,0,0-2.9.7A4.9,4.9,0,0,0,142.5,417.1Zm9,5.4a30.7,30.7,0,0,1-4.1,1.1,15.6,15.6,0,0,0-3.6,1.1,3.1,3.1,0,0,0-1.4,2.4,3.4,3.4,0,0,0,1.1,2.5,3.6,3.6,0,0,0,2.7,1,5.9,5.9,0,0,0,3.5-1.2,4.4,4.4,0,0,0,1.6-2.2,13.4,13.4,0,0,0,.2-3.3Zm13.3,12.3V399.6h6.8v35.2Zm25.6-11.5,6.9-.6a8.3,8.3,0,0,0,2.6,5.1,7.3,7.3,0,0,0,5.1,1.6,8.5,8.5,0,0,0,5.2-1.4,4.5,4.5,0,0,0,1.7-3.4,3.2,3.2,0,0,0-.7-2.2,5.2,5.2,0,0,0-2.6-1.5l-5.7-1.5c-3.8-1-6.4-2.1-8-3.5a9.4,9.4,0,0,1-3.2-7.1,8.9,8.9,0,0,1,1.5-5,9.3,9.3,0,0,1,4.4-3.6,17.8,17.8,0,0,1,6.9-1.2c4.5,0,7.8.9,10,2.9a10.2,10.2,0,0,1,3.5,7.7l-7.1.4a6.1,6.1,0,0,0-1.9-4,7.8,7.8,0,0,0-4.5-1.1,8.7,8.7,0,0,0-4.9,1.2,2.8,2.8,0,0,0-1.1,2.2,2.7,2.7,0,0,0,1,2.2c.9.7,3.1,1.5,6.6,2.3a37.1,37.1,0,0,1,7.6,2.5,9.7,9.7,0,0,1,3.9,3.6,9.9,9.9,0,0,1,1.4,5.6,10.7,10.7,0,0,1-1.6,5.7,9.7,9.7,0,0,1-4.8,3.9,19,19,0,0,1-7.7,1.3c-4.4,0-7.8-1-10.2-3.1S190.9,427.3,190.4,423.3ZM225,405.8v-6.2h6.7v6.2Zm0,29V409.3h6.7v25.5Zm13,1.7,7.7.9a2.6,2.6,0,0,0,.9,1.9,5.8,5.8,0,0,0,3,.7,8.3,8.3,0,0,0,4-.8,3.3,3.3,0,0,0,1.3-1.7,7.6,7.6,0,0,0,.4-3.1v-3.7c-2.1,2.7-4.6,4.1-7.7,4.1a9.4,9.4,0,0,1-8.1-4.4,14.4,14.4,0,0,1-2.4-8.5c0-4.3,1.1-7.6,3.1-9.8a9.9,9.9,0,0,1,7.7-3.4,9.4,9.4,0,0,1,7.8,4.2v-3.6H262v22.9a22.7,22.7,0,0,1-.7,6.7,8,8,0,0,1-2.1,3.5,8.9,8.9,0,0,1-3.6,2,18.5,18.5,0,0,1-5.7.7c-4.3,0-7.4-.7-9.2-2.2a6.9,6.9,0,0,1-2.7-5.6Zm6-15c0,2.7.6,4.7,1.6,5.9a4.9,4.9,0,0,0,3.9,1.9,5.5,5.5,0,0,0,4.2-1.9,8.6,8.6,0,0,0,1.7-5.7c0-2.7-.6-4.6-1.7-5.9a4.9,4.9,0,0,0-4.1-1.9,5,5,0,0,0-4,1.9A8.8,8.8,0,0,0,244,421.5Zm47.9,13.3h-6.8v-13a20.3,20.3,0,0,0-.4-5.4,4.5,4.5,0,0,0-1.4-1.9,4.4,4.4,0,0,0-2.3-.6,5.7,5.7,0,0,0-3.2.9,4.9,4.9,0,0,0-1.9,2.6,23.7,23.7,0,0,0-.5,5.8v11.6h-6.8V409.3h6.3V413a10.1,10.1,0,0,1,8.4-4.3,10.7,10.7,0,0,1,4.1.8,6.1,6.1,0,0,1,2.8,2.1,6.6,6.6,0,0,1,1.3,2.8,18.2,18.2,0,0,1,.4,4.5Zm11.9-17.7-6.2-1.1a9.6,9.6,0,0,1,3.6-5.5q2.6-1.8,7.5-1.8a16.3,16.3,0,0,1,6.7,1.1,6.4,6.4,0,0,1,3.1,2.7q.9,1.7.9,6v7.9a30.7,30.7,0,0,0,.3,5,13.9,13.9,0,0,0,1.2,3.4h-6.7a12.4,12.4,0,0,1-.6-2,2.2,2.2,0,0,0-.3-.8,11,11,0,0,1-3.7,2.5,9.9,9.9,0,0,1-4.2.9,8.8,8.8,0,0,1-6.2-2.2A7.7,7.7,0,0,1,298,424a6.1,6.1,0,0,1,2.9-2.6,19.8,19.8,0,0,1,5.3-1.6,29.7,29.7,0,0,0,6.6-1.7v-.6a3.3,3.3,0,0,0-1-2.8c-.6-.6-1.8-.8-3.6-.8a4.7,4.7,0,0,0-2.8.7A4.4,4.4,0,0,0,303.8,417.1Zm9,5.4a35.9,35.9,0,0,1-4.1,1.1,17,17,0,0,0-3.7,1.1,3,3,0,0,0-1.3,2.4,3.4,3.4,0,0,0,1.1,2.5,3.5,3.5,0,0,0,2.6,1,5.7,5.7,0,0,0,3.5-1.2,3.8,3.8,0,0,0,1.6-2.2,12.1,12.1,0,0,0,.3-3.3Zm12.7,14,7.7.9a2.6,2.6,0,0,0,.9,1.9,5.5,5.5,0,0,0,3,.7,7.8,7.8,0,0,0,3.9-.8,3.4,3.4,0,0,0,1.4-1.7,10.9,10.9,0,0,0,.3-3.1v-3.7a9.2,9.2,0,0,1-7.6,4.1,9.5,9.5,0,0,1-8.2-4.4,15.2,15.2,0,0,1-2.3-8.5c0-4.3,1-7.6,3.1-9.8a9.7,9.7,0,0,1,7.6-3.4,9.2,9.2,0,0,1,7.8,4.2v-3.6h6.4v22.9a22.1,22.1,0,0,1-.8,6.7,8,8,0,0,1-2.1,3.5,8.9,8.9,0,0,1-3.6,2,18.2,18.2,0,0,1-5.6.7c-4.4,0-7.4-.7-9.2-2.2a6.7,6.7,0,0,1-2.8-5.6A2.5,2.5,0,0,1,325.5,436.5Zm6-15c0,2.7.5,4.7,1.6,5.9a4.6,4.6,0,0,0,3.8,1.9,5.2,5.2,0,0,0,4.2-1.9c1.2-1.3,1.7-3.2,1.7-5.7s-.5-4.6-1.6-5.9a5.2,5.2,0,0,0-4.1-1.9,4.7,4.7,0,0,0-4,1.9C332,417,331.5,418.9,331.5,421.5Zm39.4,5.2,6.7,1.1a10.3,10.3,0,0,1-4.1,5.6,11.8,11.8,0,0,1-7,2c-4.4,0-7.7-1.5-9.8-4.4a14.3,14.3,0,0,1-2.5-8.8q0-6.3,3.3-9.9a10.9,10.9,0,0,1,8.4-3.6,11.2,11.2,0,0,1,8.9,3.8c2.2,2.5,3.3,6.3,3.2,11.5H361.1a6.6,6.6,0,0,0,1.6,4.6,5,5,0,0,0,3.9,1.7,4.8,4.8,0,0,0,2.7-.8A6.3,6.3,0,0,0,370.9,426.7Zm.4-6.9a7,7,0,0,0-1.5-4.4,4.9,4.9,0,0,0-3.5-1.5,4.7,4.7,0,0,0-3.7,1.6,6.3,6.3,0,0,0-1.4,4.3Z"/></svg>